<?xml version="1.0" standalone="no"?>
<!DOCTYPE svg PUBLIC "-//W3C//DTD SVG 20010904//EN"
 "http://www.w3.org/TR/2001/REC-SVG-20010904/DTD/svg10.dtd">
<svg version="1.0" xmlns="http://www.w3.org/2000/svg"
 width="600.000000pt" height="600.000000pt" viewBox="0 0 600.000000 600.000000"
 preserveAspectRatio="xMidYMid meet">

<g transform="translate(0.000000,600.000000) scale(0.100000,-0.100000)"
fill="#000000" stroke="none">
<path d="M1214 5089 c-51 -12 -118 -68 -145 -120 -31 -62 -45 -134 -93 -469
-61 -431 -93 -691 -111 -910 -22 -267 -36 -390 -47 -390 -5 0 -73 25 -151 55
-78 30 -151 55 -162 55 -45 0 -62 -57 -25 -83 11 -8 90 -41 176 -73 l156 -59
-6 -54 c-2 -29 -7 -56 -10 -59 -3 -3 -99 2 -213 11 -190 14 -209 14 -225 0
-21 -19 -23 -56 -5 -72 10 -8 341 -41 415 -41 16 0 16 -81 0 -102 -8 -9 -63
-27 -133 -43 -183 -41 -194 -44 -205 -66 -15 -27 -3 -58 25 -65 13 -3 86 8
161 25 75 18 137 31 138 29 1 -2 -16 -130 -38 -285 l-39 -283 -187 0 c-154 0
-190 -3 -200 -15 -7 -8 -10 -21 -7 -30 5 -13 98 -15 725 -17 l719 -3 106 -52
c122 -61 200 -127 242 -205 68 -126 173 -263 230 -298 54 -33 152 -19 168 25
5 12 12 13 32 5 39 -15 76 -12 115 9 40 20 80 74 80 105 0 14 12 26 32 36 45
21 70 60 70 109 -1 40 -41 132 -96 220 -14 22 -26 43 -26 46 0 3 137 5 305 5
l305 0 -44 -72 c-53 -87 -86 -168 -86 -208 0 -32 48 -95 80 -105 11 -3 20 -19
24 -40 14 -73 110 -129 182 -107 33 10 38 9 58 -14 23 -27 79 -41 121 -30 55
14 173 149 246 281 18 33 46 77 61 97 38 49 156 127 251 166 l76 32 726 0
c638 0 726 2 731 15 4 8 1 22 -6 30 -10 12 -49 15 -221 15 l-208 0 -5 33 c-20
119 -77 540 -73 543 2 2 75 -12 162 -31 87 -20 168 -35 179 -33 30 4 45 53 24
75 -10 9 -92 33 -200 58 l-183 42 -7 43 c-4 25 -4 47 0 51 4 3 108 14 231 23
127 9 230 21 237 27 20 16 17 66 -4 78 -11 6 -99 3 -247 -9 -166 -12 -232 -14
-237 -6 -4 6 -8 29 -8 52 l0 41 178 68 c97 38 185 75 195 83 33 29 16 82 -27
82 -11 0 -96 -30 -188 -66 -93 -37 -171 -64 -174 -61 -5 4 -30 251 -54 522
-24 275 -138 1103 -164 1189 -35 114 -97 177 -199 198 -183 38 -546 -151 -942
-492 -86 -74 -97 -81 -127 -76 -18 3 -150 13 -293 22 -286 18 -592 15 -905
-10 l-175 -14 -35 29 c-366 306 -580 445 -783 514 -84 28 -185 38 -243 24z
m3478 -208 c13 -11 30 -37 36 -58 38 -129 99 -652 118 -1013 l6 -125 -83 90
c-268 289 -356 364 -601 505 -43 25 -78 48 -78 51 0 12 185 256 262 345 90
104 163 169 227 202 54 27 81 28 113 3z m-3276 -81 c79 -52 265 -244 377 -391
83 -109 86 -115 68 -129 -11 -8 -82 -55 -158 -105 -160 -105 -254 -191 -433
-398 l-125 -145 -3 76 c-8 181 33 769 68 975 22 130 40 157 104 157 31 0 56
-10 102 -40z m947 -1037 c251 -118 317 -481 124 -690 -164 -178 -489 -185
-670 -14 -124 117 -164 315 -91 452 64 120 220 238 366 275 84 21 196 12 271
-23z m1529 26 c97 -20 213 -83 286 -157 92 -91 124 -155 130 -252 7 -130 -35
-237 -127 -323 -180 -169 -505 -161 -668 16 -183 198 -135 539 94 674 85 50
180 64 285 42z m-793 -377 c45 -23 44 -35 -3 -43 -55 -9 -75 -39 -76 -112 0
-57 12 -94 34 -109 18 -13 90 -8 109 6 10 8 22 27 26 43 9 34 41 45 41 13 0
-34 -28 -78 -60 -95 -42 -22 -112 -19 -143 6 l-26 20 -32 -23 c-35 -26 -101
-31 -141 -10 -29 16 -58 61 -58 90 0 37 19 34 37 -5 23 -48 63 -69 112 -57 46
12 61 42 61 122 0 54 -4 67 -25 87 -15 16 -36 25 -55 25 -20 0 -30 5 -30 15 0
42 163 61 229 27z m-1715 -345 c21 -12 47 -38 57 -57 27 -50 25 -128 -4 -171
-24 -37 -97 -79 -137 -79 -40 0 -113 42 -137 79 -28 41 -31 117 -7 167 36 76
149 107 228 61z m3392 7 c64 -31 102 -108 88 -182 -10 -56 -76 -118 -136 -127
-59 -9 -125 19 -159 66 -33 46 -34 144 -3 186 52 70 135 92 210 57z"/>
<path d="M2119 3590 c-147 -78 -184 -298 -72 -429 85 -100 209 -107 301 -18
50 48 74 103 80 179 6 83 -9 139 -53 199 -60 83 -173 113 -256 69z m227 -120
c9 -27 9 -42 0 -65 -24 -60 -96 -34 -96 35 0 72 75 96 96 30z"/>
<path d="M3722 3600 c-50 -20 -93 -64 -123 -126 -29 -59 -31 -70 -27 -141 5
-88 27 -139 80 -190 92 -89 216 -82 301 18 142 165 38 450 -163 448 -25 0 -55
-4 -68 -9z m12 -112 c33 -46 8 -118 -40 -118 -19 0 -28 8 -40 35 -30 73 38
144 80 83z"/>
</g>
</svg>
